<svg xmlns="http://www.w3.org/2000/svg" enable-background="new 0 0 753 823" viewBox="0 0 753 823"><switch><g><path fill="#cce9ff" d="M649.4,101.1C576.7,26.3,454.6,11.4,361.1,78c-51.2,36.4-81.6,95.3-134.2,130.5
			C167.9,248,99.7,284.1,62.8,347.6C23.6,415.2,25.7,503,65.2,569.9c48.1,81.5,143.4,103.2,232.9,99.8
			c227.1-8.6,472.2-235.4,404.4-475.5C692.1,157.2,673.4,125.9,649.4,101.1z"/><path fill="#0b4870" d="M414.8 784.2c-2.2 0-4.1-1.8-4.2-4l-10.5-375.4c-.1-2.3 1.7-4.2 4-4.3 2.3-.1 4.2 1.7 4.3 4l10.5 375.4c.1 2.3-1.7 4.2-4 4.3C414.9 784.2 414.8 784.2 414.8 784.2zM551.9 784.2c-2.2 0-4.1-1.7-4.2-4l-15.9-375.4c-.1-2.3 1.7-4.2 4-4.3 2.3-.1 4.2 1.7 4.3 4L556 779.9c.1 2.3-1.7 4.2-4 4.3C552 784.2 552 784.2 551.9 784.2zM487.2 784.2c-.1 0-.1 0-.2 0-2.3-.1-4.1-2.1-4-4.4l27.1-566c.1-2.3 2.1-4 4.4-4 2.3.1 4.1 2.1 4 4.4l-27.1 566C491.2 782.5 489.4 784.2 487.2 784.2zM349.9 784.2c-.1 0-.2 0-.2 0-2.3-.1-4-2.1-3.9-4.4L378.3 211c.1-2.3 2-4.1 4.4-3.9 2.3.1 4 2.1 3.9 4.4l-32.5 568.8C353.9 782.5 352.1 784.2 349.9 784.2z"/><polygon fill="#0b4870" points="554.7 460.3 381.1 460.3 370.4 163.5 544 163.5"/><polygon fill="#f7f7f7" points="558.8 460.3 385.3 460.3 374.6 163.5 548.2 163.5"/><path fill="#ffbe55" d="M455.1,299.9c-31.4,0-58.4-25.6-60-57c-0.8-15.3,4.4-29.6,14.6-40.4c10.2-10.8,24.2-16.7,39.4-16.7
			c31.4,0,58.4,25.6,60,57l0,0c0.8,15.3-4.4,29.6-14.6,40.4C484.3,294,470.3,299.9,455.1,299.9z M449,187.4
			c-14.8,0-28.4,5.8-38.3,16.2c-9.9,10.5-15,24.4-14.2,39.2c1.6,30.6,27.9,55.5,58.5,55.5c14.8,0,28.4-5.8,38.3-16.2
			c9.9-10.5,15-24.4,14.2-39.2l0,0C505.9,212.3,479.6,187.4,449,187.4z"/><path fill="#ffbe55" d="M452,243.7c-0.1,0-0.2,0-0.3-0.1l-52.6-23c-0.4-0.2-0.6-0.6-0.4-1c0.2-0.4,0.6-0.6,1-0.4l52.2,22.8l43.5-32.6
			c0.3-0.3,0.8-0.2,1.1,0.2c0.3,0.3,0.2,0.8-0.2,1.1l-43.8,32.9C452.4,243.6,452.2,243.7,452,243.7z"/><path fill="#ffbe55" d="M491.8 285.6c-.2 0-.4-.1-.6-.2l-39.7-41.9c-.3-.3-.3-.7-.1-1 .2-.3.6-.4 1-.3l52.1 24.1c.4.2.6.6.4 1-.2.4-.6.6-1 .4l-48.4-22.4 36.9 39c.3.3.3.8 0 1.1C492.2 285.5 492 285.6 491.8 285.6zM427.5 427.6c-11.3 0-21-9.2-21.6-20.5-.3-5.5 1.6-10.7 5.3-14.6 3.7-3.9 8.7-6 14.3-6 11.3 0 21 9.2 21.6 20.5.3 5.5-1.6 10.7-5.3 14.6C438.1 425.4 433 427.6 427.5 427.6zM425.4 387.9c-5.1 0-9.7 2-13.1 5.5-3.4 3.6-5.1 8.4-4.8 13.4.6 10.5 9.6 19.1 20.1 19.1 5.1 0 9.7-2 13.1-5.5 3.4-3.6 5.1-8.4 4.8-13.4C444.9 396.5 435.9 387.9 425.4 387.9zM495.3 327.9h-47.7c-.4 0-.8-.3-.8-.7l-.5-9.5c0-.2.1-.4.2-.6.1-.2.4-.2.6-.2h47.7c.4 0 .8.3.8.7l.5 9.5c0 .2-.1.4-.2.6C495.8 327.8 495.6 327.9 495.3 327.9zM448.4 326.3h46.1l-.4-7.9H448L448.4 326.3zM483.7 346.8h-35c-.4 0-.8-.3-.8-.7l-.5-9.5c0-.2.1-.4.2-.6.1-.2.4-.2.6-.2h35c.4 0 .8.3.8.7l.5 9.5c0 .2-.1.4-.2.6C484.1 346.7 483.9 346.8 483.7 346.8zM449.4 345.2h33.4l-.4-7.9H449L449.4 345.2zM509 365.7h-59.3c-.4 0-.8-.3-.8-.7l-.5-9.4c0-.2.1-.4.2-.6.1-.2.4-.2.6-.2h59.3c.4 0 .8.3.8.7l.5 9.4c0 .2-.1.4-.2.6C509.4 365.6 509.2 365.7 509 365.7zM450.5 364.1h57.7l-.4-7.9H450L450.5 364.1zM544.2 430.5h-66.5c-.4 0-.8-.3-.8-.7l-2.5-47.2c0-.4.3-.8.7-.8.4-.1.8.3.8.7l2.5 46.5h65.7c.4 0 .8.3.8.8S544.6 430.5 544.2 430.5z"/><path fill="#ffbe55" d="M481.6,422.9c-0.1,0-0.2,0-0.3-0.1c-0.4-0.2-0.6-0.6-0.4-1l11.6-27.9c0.1-0.3,0.4-0.4,0.6-0.5
			c0.3,0,0.6,0.1,0.7,0.3l12,17.5l4.8-9.2c0.1-0.2,0.4-0.4,0.6-0.4c0.3,0,0.5,0.1,0.7,0.3l12.2,16.7l17-32c0.2-0.4,0.7-0.5,1.1-0.3
			c0.4,0.2,0.5,0.7,0.3,1.1l-17.6,33.1c-0.1,0.2-0.4,0.4-0.6,0.4c-0.3,0-0.5-0.1-0.7-0.3L511.4,404l-4.9,9.2
			c-0.1,0.2-0.4,0.4-0.6,0.4c-0.3,0-0.5-0.1-0.7-0.3l-11.9-17.4l-11,26.5C482.2,422.7,481.9,422.9,481.6,422.9z"/><path fill="#dba17b" d="M229.6,416.9c0.3,0.5,9.7,11.2,9.7,11.2l7.4-5.1l-9.4-10.3L229.6,416.9z"/><path fill="#0b4870" d="M236.9,409.8c0.2,0.2,4.1,5.2,4.1,5.2l-10.4,5.9l-3.3-4.7L236.9,409.8z"/><path fill="#dba17b" d="M389.1,396.1c0.6,0.2,15.6,5.4,15.6,5.4l3-7.4l-14.8-4.8L389.1,396.1z"/><path fill="#0b4870" d="M390.2,387.2c0.3,0.1,7.1,2.2,7.1,2.2l-4.8,9.4l-5.4-2L390.2,387.2z"/><path fill="#ffbe55" d="M318.1,309.5l-10.8-4c-1.8-0.7-3.7-1.4-5.8-2.1c0,0-27.8-6.9-27.9-6.9c-3.8-0.9-14.8,3.9-18.7,5.1
			c-24.5,7.5-46.9,26.3-53.5,51.9c-2.8,10.6-1.8,21.6,2.1,31.9c1.5,4,19.2,35.6,23.4,33.3c0,0,12.8-7,12.8-7
			c-24.9-35.1-24.7-62.9,1.8-82.9c11,27.9,14.5,56.8,5.5,87.3h77.6c-9.4-30.5-10.6-50.8-8.2-66.9c11.6,24.8,32.4,43.4,71.5,49.5
			l6.2-11.4C358.2,373.1,337.3,342.3,318.1,309.5z"/><polygon fill="#dba17b" points="255.9 477.2 234.2 593.7 206.9 738.2 221.8 738.4 260.7 593.8 291.1 473.9"/><polygon fill="#dba17b" points="291.8 477.2 295.7 593.7 273.2 738.2 288.6 738.4 322.2 593.8 326.6 473.9"/><path fill="#0b4870" d="M250.6,230.2c-2.5-10.1-35.1-16.7-33.7,6.8s18.7,36,7.7,47.3c0,0,40-7.9,31.5-31.7
			C247.5,228.9,250.6,230.2,250.6,230.2z"/><path fill="#ffbe55" d="M238.5,226.4c-6.3,5.6-8,18.5,12.1,20.3l7.3-19.3C255.4,224.3,244.8,220.8,238.5,226.4z"/><path fill="#0b4870" d="M246 228.4c-13.9 12.4-17.7 40.8 26.7 44.7l16.1-42.7C283.3 223.8 259.9 216 246 228.4zM272.9 733.5l-3.2 21.1c-.4 2.3 1.8 4.4 4.6 4.4h50l-.1-.2c-1.3-3-4.6-5-8.3-5.2-10.3-.5-24.6-7.4-24.6-18.7L272.9 733.5zM206.4 733.5l-6.5 20.6c-.8 2.5 1.4 4.9 4.5 4.9h38.5l0 0c-.8-2.7-3.1-4.9-6.2-5.7-4.5-1.2-14.2-5.2-12.1-18.3L206.4 733.5z"/><path fill="#dba17b" d="M271.3,268.5c1.6,10.8-1.8,25.7-4.9,30.8c-3.1,5.1,26.4,11.9,20.6,2.2c-3.6-7.7-0.8-16.9,3.9-25.2
			L271.3,268.5z"/><path fill="#f7f7f7" d="M267.1 297.9c0 0 6.1 6.3 16.2 8.4 0 0-9.5 8.2-12.7 12.7 0 0-13.8-9-14.4-18L267.1 297.9zM286 299.1c0 0 1 4.1-2.7 7.2 0 0 9.7 5.7 14 11.2 0 0 5.2-11.2-4.6-16.8L286 299.1z"/><path fill="#c18868" d="M271.3,268.5c0.4,2.9,0.5,6.1,0.3,9.4c2.9,7.6,7.2,11.9,13.8,13.4c0.6-5,2.7-10.1,5.4-14.9L271.3,268.5z"/><path fill="#dba17b" d="M306.1,264c-1.3-1.6-2.9-4.2-4.2-6.4c-0.8-5.7-2-12.4-3.7-20c-2.1-9.2-30.2-13.3-32.2,16.9
			c-0.1,0-0.1,0-0.2,0c-5,0.3-7.1,3.7-4.3,9.5c1.4,2.9,3.2,5.1,5.5,6.2c1.7,9.7,8.8,18.7,29.5,19.1c4,0.1,7.5-6.3,6.3-23.2
			c1.2,0,2.2-0.2,2.8-0.5C306.3,265.5,306.5,264.6,306.1,264z"/><path fill="#0b4870" d="M301.5,233.9c7.7,8.9-21.1,28.1-44.9,24.3C256.6,258.1,276.9,205.5,301.5,233.9z"/><polygon fill="#0b4870" points="333.5 539.6 233.5 553.3 247 416.1 324.7 416.1"/><path fill="#dba17b" d="M240.1 420.3c4.3-5.2 1-7.7 8.7-11 7.6-3.3 10.3 7.9.8 17.3-1.5 1.5-2.9 2.9-4 3C239.7 430.4 235.1 426.3 240.1 420.3zM433.3 404.5c-1.8-.5-8.3-3.6-12.4-5.7-.6-.5-1.4-.9-2.3-1.4.1-.2.3-.3.4-.5.9-2.1-1.5-2.4-3-2.3-1.1.1-3.3-.5-5.4-1-8.4-3.3-15.6 3.8-12.9 7.4 2.9 3.8 13.7 8.6 21.6 3.7.9-.6 1.7-1.1 2.2-1.6 2.4.9 5.5 1.7 8.6 2.8C434.6 407.5 435.6 405.2 433.3 404.5z"/></g></switch></svg>